<svg width="1143" height="169" viewBox="0 0 1143 169" fill="none" xmlns="http://www.w3.org/2000/svg">
<path d="M211.75 105.281C212.609 126.062 229.641 138.875 255.578 138.875C282.844 138.875 300.031 125.438 300.031 104.031C300.031 87.2344 290.344 77.7812 267.453 72.5469L254.484 69.5781C240.656 66.2969 234.953 61.9219 234.953 54.4219C234.953 45.0469 243.547 38.7969 256.281 38.7969C269.172 38.7969 278 45.125 278.938 55.6719H298.156C297.688 35.8281 281.281 22.3906 256.438 22.3906C231.906 22.3906 214.484 35.9062 214.484 55.9062C214.484 72 224.328 82 245.109 86.7656L259.719 90.2031C273.938 93.5625 279.719 98.25 279.719 106.375C279.719 115.75 270.266 122.469 256.672 122.469C242.922 122.469 232.531 115.672 231.281 105.281H211.75ZM318.703 34.8125V54.1875H306.828V69.1875H318.703V114.969C318.703 131.062 325.734 137.391 343.625 137.391C347.766 137.391 351.594 137.078 353.703 136.609V121.766C352.453 122 349.953 122.156 348.156 122.156C341.281 122.156 338.156 119.031 338.156 112.234V69.1875H353.781V54.1875H338.156V34.8125H318.703ZM367.062 137H386.516V88.7969C386.516 77.1562 393.156 70.0469 404.172 70.0469C407.453 70.0469 410.422 70.5156 412.062 71.1406V53.5625C410.656 53.25 408.469 52.7812 405.969 52.7812C396.203 52.7812 388.938 58.5625 386.125 68.6406H385.734V54.1875H367.062V137ZM450.422 123.641C441.984 123.641 436.359 119.344 436.359 112.547C436.359 105.984 441.75 101.766 451.125 101.141L470.266 99.9688V106.297C470.266 116.297 461.438 123.641 450.422 123.641ZM444.562 138.328C455.188 138.328 465.578 132.781 470.344 123.797H470.734V137H489.484V79.9688C489.484 63.3281 476.125 52.4688 455.578 52.4688C434.484 52.4688 421.281 63.5625 420.422 79.0312H438.469C439.719 72.1562 445.578 67.7031 454.797 67.7031C464.406 67.7031 470.266 72.7031 470.266 81.375V87.3125L448.391 88.5625C428.234 89.8125 416.906 98.6406 416.906 113.328C416.906 128.25 428.547 138.328 444.562 138.328ZM505.656 137H525.109V54.1875H505.656V137ZM515.344 43.3281C521.438 43.3281 526.203 38.6406 526.203 32.7812C526.203 26.8438 521.438 22.1562 515.344 22.1562C509.328 22.1562 504.562 26.8438 504.562 32.7812C504.562 38.6406 509.328 43.3281 515.344 43.3281ZM578 121.609C565.734 121.609 557.922 111.766 557.922 95.3594C557.922 79.1094 565.734 68.7969 578 68.7969C590.422 68.7969 598.469 79.2656 598.469 95.3594C598.469 111.531 590.422 121.609 578 121.609ZM577.922 168.25C602.062 168.25 617.922 155.438 617.922 135.672V54.1875H598.859V68.4062H598.547C593.781 58.875 584.25 52.7812 572.453 52.7812C551.281 52.7812 538 69.1094 538 95.2812C538 121.062 551.594 137.078 572.062 137.078C583.938 137.078 593.703 131.141 598 122.234H598.469V136.219C598.469 146.766 591.203 153.875 578.547 153.875C569.328 153.875 562.219 149.578 560.109 143.25H540.812C542.766 157.781 557.453 168.25 577.922 168.25ZM634.328 137H653.781V89.4219C653.781 77.2344 660.891 69.1094 672.609 69.1094C683.859 69.1094 689.641 76.0625 689.641 87.625V137H709.094V83.6406C709.094 64.6562 698.391 52.625 680.109 52.625C667.531 52.625 658.391 58.3281 653.938 68.4062H653.547V24.2656H634.328V137ZM730.109 34.8125V54.1875H718.234V69.1875H730.109V114.969C730.109 131.062 737.141 137.391 755.031 137.391C759.172 137.391 763 137.078 765.109 136.609V121.766C763.859 122 761.359 122.156 759.562 122.156C752.688 122.156 749.562 119.031 749.562 112.234V69.1875H765.188V54.1875H749.562V34.8125H730.109ZM807.609 123.641C799.172 123.641 793.547 119.344 793.547 112.547C793.547 105.984 798.938 101.766 808.312 101.141L827.453 99.9688V106.297C827.453 116.297 818.625 123.641 807.609 123.641ZM801.75 138.328C812.375 138.328 822.766 132.781 827.531 123.797H827.922V137H846.672V79.9688C846.672 63.3281 833.312 52.4688 812.766 52.4688C791.672 52.4688 778.469 63.5625 777.609 79.0312H795.656C796.906 72.1562 802.766 67.7031 811.984 67.7031C821.594 67.7031 827.453 72.7031 827.453 81.375V87.3125L805.578 88.5625C785.422 89.8125 774.094 98.6406 774.094 113.328C774.094 128.25 785.734 138.328 801.75 138.328ZM974.406 54.1875H955.188L941.203 117.781H940.734L924.562 54.1875H905.891L889.719 117.781H889.328L875.344 54.1875H855.812L878.234 137H898.547L914.797 76.4531H915.188L931.516 137H951.984L974.406 54.1875ZM1012.92 123.641C1004.48 123.641 998.859 119.344 998.859 112.547C998.859 105.984 1004.25 101.766 1013.62 101.141L1032.77 99.9688V106.297C1032.77 116.297 1023.94 123.641 1012.92 123.641ZM1007.06 138.328C1017.69 138.328 1028.08 132.781 1032.84 123.797H1033.23V137H1051.98V79.9688C1051.98 63.3281 1038.62 52.4688 1018.08 52.4688C996.984 52.4688 983.781 63.5625 982.922 79.0312H1000.97C1002.22 72.1562 1008.08 67.7031 1017.3 67.7031C1026.91 67.7031 1032.77 72.7031 1032.77 81.375V87.3125L1010.89 88.5625C990.734 89.8125 979.406 98.6406 979.406 113.328C979.406 128.25 991.047 138.328 1007.06 138.328ZM1076.59 167.781C1095.5 167.781 1104.64 160.828 1111.75 140.281L1141.67 54.1875H1121.2L1101.67 120.438H1101.36L1081.83 54.1875H1060.58L1090.03 137.078C1090.11 137.312 1088.94 141.453 1088.94 141.688C1086.75 149.344 1082.61 152.391 1074.56 152.391C1073.39 152.391 1069.95 152.312 1068.94 152.078V167.469C1069.95 167.703 1075.5 167.781 1076.59 167.781Z" fill="#2E2BB8"/>
<path d="M211.75 105.281V104.531H210.968L211.001 105.312L211.75 105.281ZM267.453 72.5469L267.286 73.278L267.286 73.278L267.453 72.5469ZM254.484 69.5781L254.311 70.3079L254.317 70.3092L254.484 69.5781ZM278.938 55.6719L278.19 55.7383L278.251 56.4219H278.938V55.6719ZM298.156 55.6719V56.4219H298.924L298.906 55.6542L298.156 55.6719ZM245.109 86.7656L245.281 86.0356L245.277 86.0346L245.109 86.7656ZM259.719 90.2031L259.891 89.4732L259.891 89.4731L259.719 90.2031ZM231.281 105.281L232.026 105.192L231.946 104.531H231.281V105.281ZM211.001 105.312C211.439 115.92 216.016 124.528 223.805 130.467C231.577 136.394 242.494 139.625 255.578 139.625V138.125C242.725 138.125 232.157 134.95 224.715 129.275C217.289 123.612 212.92 115.423 212.499 105.25L211.001 105.312ZM255.578 139.625C269.325 139.625 280.618 136.238 288.492 130.071C296.385 123.888 300.781 114.956 300.781 104.031H299.281C299.281 114.513 295.083 123.002 287.567 128.89C280.031 134.793 269.097 138.125 255.578 138.125V139.625ZM300.781 104.031C300.781 95.4722 298.305 88.6999 292.848 83.4144C287.421 78.1584 279.121 74.4456 267.62 71.8158L267.286 73.278C278.676 75.8825 286.664 79.5135 291.804 84.4919C296.914 89.4407 299.281 95.7935 299.281 104.031H300.781ZM267.62 71.8158L254.652 68.847L254.317 70.3092L267.286 73.278L267.62 71.8158ZM254.658 68.8484C247.771 67.2144 243.017 65.3298 239.992 62.9889C237.018 60.687 235.703 57.9357 235.703 54.4219H234.203C234.203 58.4081 235.74 61.5942 239.074 64.1751C242.358 66.7171 247.369 68.6606 254.311 70.3079L254.658 68.8484ZM235.703 54.4219C235.703 49.991 237.723 46.3029 241.284 43.6992C244.864 41.0824 250.028 39.5469 256.281 39.5469V38.0469C249.8 38.0469 244.3 39.6363 240.399 42.4883C236.48 45.3533 234.203 49.4777 234.203 54.4219H235.703ZM256.281 39.5469C262.61 39.5469 267.872 41.1008 271.647 43.8831C275.407 46.6544 277.74 50.6764 278.19 55.7383L279.685 55.6055C279.197 50.1205 276.647 45.705 272.537 42.6755C268.441 39.657 262.843 38.0469 256.281 38.0469V39.5469ZM278.938 56.4219H298.156V54.9219H278.938V56.4219ZM298.906 55.6542C298.666 45.5131 294.347 36.9847 286.907 31.0053C279.48 25.0354 268.99 21.6406 256.438 21.6406V23.1406C268.729 23.1406 278.864 26.4646 285.968 32.1744C293.06 37.8747 297.177 45.9869 297.406 55.6896L298.906 55.6542ZM256.438 21.6406C244.04 21.6406 233.377 25.0556 225.796 31.0605C218.202 37.0757 213.734 45.6676 213.734 55.9062H215.234C215.234 46.1449 219.478 37.979 226.727 32.2363C233.99 26.4835 244.304 23.1406 256.438 23.1406V21.6406ZM213.734 55.9062C213.734 64.1214 216.254 70.8443 221.471 76.1118C226.668 81.3585 234.477 85.0968 244.942 87.4967L245.277 86.0346C234.961 83.6689 227.457 80.0244 222.537 75.0562C217.637 70.1088 215.234 63.7849 215.234 55.9062H213.734ZM244.938 87.4957L259.547 90.9332L259.891 89.4731L245.281 86.0356L244.938 87.4957ZM259.546 90.933C266.624 92.6053 271.49 94.5857 274.579 97.085C277.619 99.5445 278.969 102.53 278.969 106.375H280.469C280.469 102.095 278.928 98.6742 275.523 95.9189C272.166 93.2033 267.032 91.1603 259.891 89.4732L259.546 90.933ZM278.969 106.375C278.969 110.781 276.757 114.59 272.862 117.324C268.954 120.067 263.354 121.719 256.672 121.719V123.219C263.584 123.219 269.507 121.512 273.724 118.551C277.954 115.582 280.469 111.344 280.469 106.375H278.969ZM256.672 121.719C243.108 121.719 233.211 115.04 232.026 105.192L230.537 105.371C231.852 116.303 242.736 123.219 256.672 123.219V121.719ZM231.281 104.531H211.75V106.031H231.281V104.531ZM318.703 34.8125V34.0625H317.953V34.8125H318.703ZM318.703 54.1875V54.9375H319.453V54.1875H318.703ZM306.828 54.1875V53.4375H306.078V54.1875H306.828ZM306.828 69.1875H306.078V69.9375H306.828V69.1875ZM318.703 69.1875H319.453V68.4375H318.703V69.1875ZM353.703 136.609L353.866 137.342L354.453 137.211V136.609H353.703ZM353.703 121.766H354.453V120.862L353.565 121.028L353.703 121.766ZM338.156 69.1875V68.4375H337.406V69.1875H338.156ZM353.781 69.1875V69.9375H354.531V69.1875H353.781ZM353.781 54.1875H354.531V53.4375H353.781V54.1875ZM338.156 54.1875H337.406V54.9375H338.156V54.1875ZM338.156 34.8125H338.906V34.0625H338.156V34.8125ZM317.953 34.8125V54.1875H319.453V34.8125H317.953ZM318.703 53.4375H306.828V54.9375H318.703V53.4375ZM306.078 54.1875V69.1875H307.578V54.1875H306.078ZM306.828 69.9375H318.703V68.4375H306.828V69.9375ZM317.953 69.1875V114.969H319.453V69.1875H317.953ZM317.953 114.969C317.953 123.105 319.728 128.971 323.953 132.772C328.158 136.556 334.624 138.141 343.625 138.141V136.641C334.736 136.641 328.74 135.062 324.957 131.657C321.194 128.272 319.453 122.927 319.453 114.969H317.953ZM343.625 138.141C347.785 138.141 351.677 137.828 353.866 137.342L353.54 135.877C351.51 136.328 347.746 136.641 343.625 136.641V138.141ZM354.453 136.609V121.766H352.953V136.609H354.453ZM353.565 121.028C352.382 121.25 349.935 121.406 348.156 121.406V122.906C349.971 122.906 352.525 122.75 353.841 122.503L353.565 121.028ZM348.156 121.406C344.816 121.406 342.549 120.646 341.107 119.212C339.666 117.78 338.906 115.533 338.906 112.234H337.406C337.406 115.733 338.209 118.447 340.049 120.276C341.889 122.104 344.621 122.906 348.156 122.906V121.406ZM338.906 112.234V69.1875H337.406V112.234H338.906ZM338.156 69.9375H353.781V68.4375H338.156V69.9375ZM354.531 69.1875V54.1875H353.031V69.1875H354.531ZM353.781 53.4375H338.156V54.9375H353.781V53.4375ZM338.906 54.1875V34.8125H337.406V54.1875H338.906ZM338.156 34.0625H318.703V35.5625H338.156V34.0625ZM367.062 137H366.312V137.75H367.062V137ZM386.516 137V137.75H387.266V137H386.516ZM412.062 71.1406L411.796 71.8415L412.812 72.2289V71.1406H412.062ZM412.062 53.5625H412.812V52.9609L412.225 52.8304L412.062 53.5625ZM386.125 68.6406V69.3906H386.694L386.847 68.8422L386.125 68.6406ZM385.734 68.6406H384.984V69.3906H385.734V68.6406ZM385.734 54.1875H386.484V53.4375H385.734V54.1875ZM367.062 54.1875V53.4375H366.312V54.1875H367.062ZM367.062 137.75H386.516V136.25H367.062V137.75ZM387.266 137V88.7969H385.766V137H387.266ZM387.266 88.7969C387.266 83.1164 388.884 78.6303 391.759 75.5702C394.629 72.5159 398.83 70.7969 404.172 70.7969V69.2969C398.498 69.2969 393.871 71.1325 390.666 74.5431C387.467 77.9478 385.766 82.8368 385.766 88.7969H387.266ZM404.172 70.7969C407.406 70.7969 410.273 71.2616 411.796 71.8415L412.329 70.4398C410.57 69.7696 407.5 69.2969 404.172 69.2969V70.7969ZM412.812 71.1406V53.5625H411.312V71.1406H412.812ZM412.225 52.8304C410.813 52.5164 408.557 52.0312 405.969 52.0312V53.5312C408.381 53.5312 410.5 53.9836 411.9 54.2946L412.225 52.8304ZM405.969 52.0312C400.932 52.0312 396.505 53.5246 392.972 56.3455C389.441 59.1642 386.844 63.2738 385.403 68.439L386.847 68.8422C388.218 63.9294 390.661 60.1093 393.907 57.5178C397.151 54.9285 401.24 53.5312 405.969 53.5312V52.0312ZM386.125 67.8906H385.734V69.3906H386.125V67.8906ZM386.484 68.6406V54.1875H384.984V68.6406H386.484ZM385.734 53.4375H367.062V54.9375H385.734V53.4375ZM366.312 54.1875V137H367.812V54.1875H366.312ZM451.125 101.141L451.079 100.392L451.075 100.392L451.125 101.141ZM470.266 99.9688H471.016V99.1714L470.22 99.2202L470.266 99.9688ZM470.344 123.797V123.047H469.893L469.681 123.445L470.344 123.797ZM470.734 123.797H471.484V123.047H470.734V123.797ZM470.734 137H469.984V137.75H470.734V137ZM489.484 137V137.75H490.234V137H489.484ZM420.422 79.0312L419.673 78.9896L419.629 79.7812H420.422V79.0312ZM438.469 79.0312V79.7812H439.095L439.207 79.1654L438.469 79.0312ZM470.266 87.3125L470.308 88.0613L471.016 88.0209V87.3125H470.266ZM448.391 88.5625L448.348 87.8137L448.344 87.8139L448.391 88.5625ZM450.422 122.891C446.322 122.891 442.984 121.846 440.688 120.052C438.411 118.271 437.109 115.717 437.109 112.547H435.609C435.609 116.174 437.12 119.166 439.765 121.233C442.391 123.287 446.084 124.391 450.422 124.391V122.891ZM437.109 112.547C437.109 109.498 438.349 107.021 440.686 105.21C443.048 103.379 446.577 102.195 451.175 101.889L451.075 100.392C446.298 100.711 442.444 101.949 439.767 104.024C437.065 106.119 435.609 109.033 435.609 112.547H437.109ZM451.171 101.889L470.311 100.717L470.22 99.2202L451.079 100.392L451.171 101.889ZM469.516 99.9688V106.297H471.016V99.9688H469.516ZM469.516 106.297C469.516 115.781 461.133 122.891 450.422 122.891V124.391C461.742 124.391 471.016 116.812 471.016 106.297H469.516ZM444.562 139.078C455.423 139.078 466.092 133.413 471.006 124.148L469.681 123.445C465.064 132.15 454.952 137.578 444.562 137.578V139.078ZM470.344 124.547H470.734V123.047H470.344V124.547ZM469.984 123.797V137H471.484V123.797H469.984ZM470.734 137.75H489.484V136.25H470.734V137.75ZM490.234 137V79.9688H488.734V137H490.234ZM490.234 79.9688C490.234 71.4295 486.798 64.3379 480.709 59.3962C474.635 54.4666 465.977 51.7188 455.578 51.7188V53.2188C465.726 53.2188 474.021 55.9006 479.764 60.5609C485.491 65.209 488.734 71.8674 488.734 79.9688H490.234ZM455.578 51.7188C444.904 51.7188 436.156 54.5259 429.951 59.3575C423.736 64.1969 420.115 71.0376 419.673 78.9896L421.171 79.0729C421.588 71.5561 424.998 65.1156 430.873 60.541C436.758 55.9585 445.158 53.2188 455.578 53.2188V51.7188ZM420.422 79.7812H438.469V78.2812H420.422V79.7812ZM439.207 79.1654C439.798 75.9144 441.47 73.2561 444.079 71.4002C446.698 69.5379 450.305 68.4531 454.797 68.4531V66.9531C450.07 66.9531 446.138 68.0949 443.21 70.1779C440.272 72.2674 438.39 75.2731 437.731 78.8971L439.207 79.1654ZM454.797 68.4531C459.479 68.4531 463.15 69.671 465.641 71.8514C468.118 74.0199 469.516 77.2176 469.516 81.375H471.016C471.016 76.8605 469.484 73.2222 466.629 70.7228C463.787 68.2352 459.724 66.9531 454.797 66.9531V68.4531ZM469.516 81.375V87.3125H471.016V81.375H469.516ZM470.223 86.5637L448.348 87.8137L448.433 89.3113L470.308 88.0613L470.223 86.5637ZM448.344 87.8139C438.18 88.4443 430.141 90.9896 424.627 95.3162C419.084 99.6652 416.156 105.767 416.156 113.328H417.656C417.656 106.202 420.392 100.546 425.553 96.4963C430.742 92.4245 438.445 89.9307 448.437 89.3111L448.344 87.8139ZM416.156 113.328C416.156 120.996 419.153 127.452 424.229 131.983C429.298 136.508 436.399 139.078 444.562 139.078V137.578C436.711 137.578 429.983 135.109 425.228 130.864C420.48 126.626 417.656 120.582 417.656 113.328H416.156ZM505.656 137H504.906V137.75H505.656V137ZM525.109 137V137.75H525.859V137H525.109ZM525.109 54.1875H525.859V53.4375H525.109V54.1875ZM505.656 54.1875V53.4375H504.906V54.1875H505.656ZM505.656 137.75H525.109V136.25H505.656V137.75ZM525.859 137V54.1875H524.359V137H525.859ZM525.109 53.4375H505.656V54.9375H525.109V53.4375ZM504.906 54.1875V137H506.406V54.1875H504.906ZM515.344 44.0781C521.834 44.0781 526.953 39.0726 526.953 32.7812H525.453C525.453 38.2086 521.041 42.5781 515.344 42.5781V44.0781ZM526.953 32.7812C526.953 26.4153 521.837 21.4062 515.344 21.4062V22.9062C521.038 22.9062 525.453 27.2722 525.453 32.7812H526.953ZM515.344 21.4062C508.925 21.4062 503.812 26.4188 503.812 32.7812H505.312C505.312 27.2687 509.732 22.9062 515.344 22.9062V21.4062ZM503.812 32.7812C503.812 39.0691 508.928 44.0781 515.344 44.0781V42.5781C509.728 42.5781 505.312 38.2121 505.312 32.7812H503.812ZM617.922 54.1875H618.672V53.4375H617.922V54.1875ZM598.859 54.1875V53.4375H598.109V54.1875H598.859ZM598.859 68.4062V69.1562H599.609V68.4062H598.859ZM598.547 68.4062L597.876 68.7417L598.083 69.1562H598.547V68.4062ZM598 122.234V121.484H597.529L597.325 121.908L598 122.234ZM598.469 122.234H599.219V121.484H598.469V122.234ZM560.109 143.25L560.821 143.013L560.65 142.5H560.109V143.25ZM540.812 143.25V142.5H539.955L540.069 143.35L540.812 143.25ZM578 120.859C572.089 120.859 567.293 118.498 563.955 114.178C560.6 109.837 558.672 103.454 558.672 95.3594H557.172C557.172 103.671 559.15 110.413 562.768 115.095C566.402 119.799 571.645 122.359 578 122.359V120.859ZM558.672 95.3594C558.672 87.3448 560.599 80.8792 563.959 76.4368C567.304 72.0154 572.102 69.5469 578 69.5469V68.0469C571.633 68.0469 566.392 70.7346 562.763 75.5319C559.151 80.3083 557.172 87.124 557.172 95.3594H558.672ZM578 69.5469C583.977 69.5469 588.875 72.0554 592.298 76.5006C595.735 80.9641 597.719 87.4289 597.719 95.3594H599.219C599.219 87.1961 597.179 80.3797 593.487 75.5854C589.781 70.7727 584.444 68.0469 578 68.0469V69.5469ZM597.719 95.3594C597.719 103.33 595.735 109.713 592.303 114.086C588.885 118.44 583.988 120.859 578 120.859V122.359C584.434 122.359 589.772 119.739 593.483 115.012C597.179 110.303 599.219 103.561 599.219 95.3594H597.719ZM577.922 169C590.118 169 600.299 165.764 607.448 159.955C614.611 154.135 618.672 145.774 618.672 135.672H617.172C617.172 145.336 613.303 153.264 606.502 158.791C599.685 164.33 589.866 167.5 577.922 167.5V169ZM618.672 135.672V54.1875H617.172V135.672H618.672ZM617.922 53.4375H598.859V54.9375H617.922V53.4375ZM598.109 54.1875V68.4062H599.609V54.1875H598.109ZM598.859 67.6562H598.547V69.1562H598.859V67.6562ZM599.218 68.0708C594.322 58.2791 584.527 52.0312 572.453 52.0312V53.5312C583.973 53.5312 593.241 59.4709 597.876 68.7417L599.218 68.0708ZM572.453 52.0312C561.657 52.0312 552.823 56.2034 546.705 63.7442C540.6 71.2676 537.25 82.0766 537.25 95.2812H538.75C538.75 82.314 542.041 71.873 547.87 64.6894C553.684 57.5232 562.078 53.5312 572.453 53.5312V52.0312ZM537.25 95.2812C537.25 108.297 540.682 118.931 546.777 126.325C552.884 133.733 561.616 137.828 572.062 137.828V136.328C562.04 136.328 553.741 132.415 547.934 125.371C542.115 118.312 538.75 108.046 538.75 95.2812H537.25ZM572.062 137.828C584.185 137.828 594.237 131.761 598.675 122.56L597.325 121.908C593.169 130.521 583.69 136.328 572.062 136.328V137.828ZM598 122.984H598.469V121.484H598V122.984ZM597.719 122.234V136.219H599.219V122.234H597.719ZM597.719 136.219C597.719 141.313 595.969 145.514 592.749 148.448C589.521 151.388 584.738 153.125 578.547 153.125V154.625C585.012 154.625 590.19 152.808 593.759 149.556C597.335 146.299 599.219 141.672 599.219 136.219H597.719ZM578.547 153.125C569.525 153.125 562.793 148.93 560.821 143.013L559.398 143.487C561.644 150.226 569.131 154.625 578.547 154.625V153.125ZM560.109 142.5H540.812V144H560.109V142.5ZM540.069 143.35C542.092 158.398 557.245 169 577.922 169V167.5C557.661 167.5 543.439 157.164 541.556 143.15L540.069 143.35ZM634.328 137H633.578V137.75H634.328V137ZM653.781 137V137.75H654.531V137H653.781ZM689.641 137H688.891V137.75H689.641V137ZM709.094 137V137.75H709.844V137H709.094ZM653.938 68.4062V69.1562H654.426L654.624 68.7094L653.938 68.4062ZM653.547 68.4062H652.797V69.1562H653.547V68.4062ZM653.547 24.2656H654.297V23.5156H653.547V24.2656ZM634.328 24.2656V23.5156H633.578V24.2656H634.328ZM634.328 137.75H653.781V136.25H634.328V137.75ZM654.531 137V89.4219H653.031V137H654.531ZM654.531 89.4219C654.531 83.4711 656.266 78.5878 659.355 75.2007C662.437 71.8218 666.932 69.8594 672.609 69.8594V68.3594C666.568 68.3594 661.649 70.4595 658.247 74.1899C654.852 77.9122 653.031 83.1852 653.031 89.4219H654.531ZM672.609 69.8594C678.075 69.8594 682.108 71.5429 684.785 74.5316C687.474 77.5336 688.891 81.9592 688.891 87.625H690.391C690.391 81.7283 688.917 76.896 685.902 73.5309C682.876 70.1524 678.394 68.3594 672.609 68.3594V69.8594ZM688.891 87.625V137H690.391V87.625H688.891ZM689.641 137.75H709.094V136.25H689.641V137.75ZM709.844 137V83.6406H708.344V137H709.844ZM709.844 83.6406C709.844 74.0113 707.128 66.0582 702.008 60.5053C696.882 54.9444 689.421 51.875 680.109 51.875V53.375C689.079 53.375 696.111 56.3212 700.906 61.522C705.708 66.7308 708.344 74.2855 708.344 83.6406H709.844ZM680.109 51.875C667.272 51.875 657.839 57.7206 653.251 68.1031L654.624 68.7094C658.942 58.9357 667.791 53.375 680.109 53.375V51.875ZM653.938 67.6562H653.547V69.1562H653.938V67.6562ZM654.297 68.4062V24.2656H652.797V68.4062H654.297ZM653.547 23.5156H634.328V25.0156H653.547V23.5156ZM633.578 24.2656V137H635.078V24.2656H633.578ZM730.109 34.8125V34.0625H729.359V34.8125H730.109ZM730.109 54.1875V54.9375H730.859V54.1875H730.109ZM718.234 54.1875V53.4375H717.484V54.1875H718.234ZM718.234 69.1875H717.484V69.9375H718.234V69.1875ZM730.109 69.1875H730.859V68.4375H730.109V69.1875ZM765.109 136.609L765.272 137.342L765.859 137.211V136.609H765.109ZM765.109 121.766H765.859V120.862L764.971 121.028L765.109 121.766ZM749.562 69.1875V68.4375H748.812V69.1875H749.562ZM765.188 69.1875V69.9375H765.938V69.1875H765.188ZM765.188 54.1875H765.938V53.4375H765.188V54.1875ZM749.562 54.1875H748.812V54.9375H749.562V54.1875ZM749.562 34.8125H750.312V34.0625H749.562V34.8125ZM729.359 34.8125V54.1875H730.859V34.8125H729.359ZM730.109 53.4375H718.234V54.9375H730.109V53.4375ZM717.484 54.1875V69.1875H718.984V54.1875H717.484ZM718.234 69.9375H730.109V68.4375H718.234V69.9375ZM729.359 69.1875V114.969H730.859V69.1875H729.359ZM729.359 114.969C729.359 123.105 731.134 128.971 735.36 132.772C739.564 136.556 746.03 138.141 755.031 138.141V136.641C746.142 136.641 740.147 135.062 736.363 131.657C732.6 128.272 730.859 122.927 730.859 114.969H729.359ZM755.031 138.141C759.191 138.141 763.083 137.828 765.272 137.342L764.947 135.877C762.917 136.328 759.153 136.641 755.031 136.641V138.141ZM765.859 136.609V121.766H764.359V136.609H765.859ZM764.971 121.028C763.788 121.25 761.341 121.406 759.562 121.406V122.906C761.378 122.906 763.931 122.75 765.248 122.503L764.971 121.028ZM759.562 121.406C756.223 121.406 753.955 120.646 752.513 119.212C751.072 117.78 750.312 115.533 750.312 112.234H748.812C748.812 115.733 749.615 118.447 751.456 120.276C753.295 122.104 756.027 122.906 759.562 122.906V121.406ZM750.312 112.234V69.1875H748.812V112.234H750.312ZM749.562 69.9375H765.188V68.4375H749.562V69.9375ZM765.938 69.1875V54.1875H764.438V69.1875H765.938ZM765.188 53.4375H749.562V54.9375H765.188V53.4375ZM750.312 54.1875V34.8125H748.812V54.1875H750.312ZM749.562 34.0625H730.109V35.5625H749.562V34.0625ZM808.312 101.141L808.267 100.392L808.263 100.392L808.312 101.141ZM827.453 99.9688H828.203V99.1714L827.407 99.2202L827.453 99.9688ZM827.531 123.797V123.047H827.08L826.869 123.445L827.531 123.797ZM827.922 123.797H828.672V123.047H827.922V123.797ZM827.922 137H827.172V137.75H827.922V137ZM846.672 137V137.75H847.422V137H846.672ZM777.609 79.0312L776.861 78.9896L776.817 79.7812H777.609V79.0312ZM795.656 79.0312V79.7812H796.282L796.394 79.1654L795.656 79.0312ZM827.453 87.3125L827.496 88.0613L828.203 88.0209V87.3125H827.453ZM805.578 88.5625L805.535 87.8137L805.532 87.8139L805.578 88.5625ZM807.609 122.891C803.51 122.891 800.171 121.846 797.876 120.052C795.599 118.271 794.297 115.717 794.297 112.547H792.797C792.797 116.174 794.308 119.166 796.952 121.233C799.579 123.287 803.272 124.391 807.609 124.391V122.891ZM794.297 112.547C794.297 109.498 795.537 107.021 797.874 105.21C800.236 103.379 803.765 102.195 808.362 101.889L808.263 100.392C803.485 100.711 799.631 101.949 796.955 104.024C794.252 106.119 792.797 109.033 792.797 112.547H794.297ZM808.358 101.889L827.499 100.717L827.407 99.2202L808.267 100.392L808.358 101.889ZM826.703 99.9688V106.297H828.203V99.9688H826.703ZM826.703 106.297C826.703 115.781 818.32 122.891 807.609 122.891V124.391C818.93 124.391 828.203 116.812 828.203 106.297H826.703ZM801.75 139.078C812.611 139.078 823.28 133.413 828.194 124.148L826.869 123.445C822.252 132.15 812.139 137.578 801.75 137.578V139.078ZM827.531 124.547H827.922V123.047H827.531V124.547ZM827.172 123.797V137H828.672V123.797H827.172ZM827.922 137.75H846.672V136.25H827.922V137.75ZM847.422 137V79.9688H845.922V137H847.422ZM847.422 79.9688C847.422 71.4295 843.986 64.3379 837.896 59.3962C831.822 54.4666 823.164 51.7188 812.766 51.7188V53.2188C822.914 53.2188 831.209 55.9006 836.951 60.5609C842.679 65.209 845.922 71.8674 845.922 79.9688H847.422ZM812.766 51.7188C802.092 51.7188 793.344 54.5259 787.139 59.3575C780.924 64.1969 777.302 71.0376 776.861 78.9896L778.358 79.0729C778.776 71.5561 782.185 65.1156 788.06 60.541C793.945 55.9585 802.346 53.2188 812.766 53.2188V51.7188ZM777.609 79.7812H795.656V78.2812H777.609V79.7812ZM796.394 79.1654C796.985 75.9144 798.658 73.2561 801.267 71.4002C803.885 69.5379 807.492 68.4531 811.984 68.4531V66.9531C807.258 66.9531 803.326 68.0949 800.397 70.1779C797.46 72.2674 795.577 75.2731 794.918 78.8971L796.394 79.1654ZM811.984 68.4531C816.666 68.4531 820.338 69.671 822.828 71.8514C825.305 74.0199 826.703 77.2176 826.703 81.375H828.203C828.203 76.8605 826.671 73.2222 823.816 70.7228C820.975 68.2352 816.912 66.9531 811.984 66.9531V68.4531ZM826.703 81.375V87.3125H828.203V81.375H826.703ZM827.41 86.5637L805.535 87.8137L805.621 89.3113L827.496 88.0613L827.41 86.5637ZM805.532 87.8139C795.367 88.4443 787.328 90.9896 781.814 95.3162C776.272 99.6652 773.344 105.767 773.344 113.328H774.844C774.844 106.202 777.58 100.546 782.74 96.4963C787.93 92.4245 795.633 89.9307 805.625 89.3111L805.532 87.8139ZM773.344 113.328C773.344 120.996 776.34 127.452 781.417 131.983C786.486 136.508 793.586 139.078 801.75 139.078V137.578C793.898 137.578 787.17 135.109 782.415 130.864C777.667 126.626 774.844 120.582 774.844 113.328H773.344ZM974.406 54.1875L975.13 54.3835L975.386 53.4375H974.406V54.1875ZM955.188 54.1875V53.4375H954.585L954.455 54.0264L955.188 54.1875ZM941.203 117.781V118.531H941.806L941.936 117.942L941.203 117.781ZM940.734 117.781L940.008 117.966L940.151 118.531H940.734V117.781ZM924.562 54.1875L925.289 54.0027L925.146 53.4375H924.562V54.1875ZM905.891 54.1875V53.4375H905.307L905.164 54.0027L905.891 54.1875ZM889.719 117.781V118.531H890.302L890.446 117.966L889.719 117.781ZM889.328 117.781L888.596 117.942L888.725 118.531H889.328V117.781ZM875.344 54.1875L876.076 54.0264L875.947 53.4375H875.344V54.1875ZM855.812 54.1875V53.4375H854.832L855.089 54.3835L855.812 54.1875ZM878.234 137L877.51 137.196L877.66 137.75H878.234V137ZM898.547 137V137.75H899.122L899.271 137.194L898.547 137ZM914.797 76.4531V75.7031H914.222L914.073 76.2587L914.797 76.4531ZM915.188 76.4531L915.912 76.2578L915.762 75.7031H915.188V76.4531ZM931.516 137L930.792 137.195L930.941 137.75H931.516V137ZM951.984 137V137.75H952.558L952.708 137.196L951.984 137ZM974.406 53.4375H955.188V54.9375H974.406V53.4375ZM954.455 54.0264L940.471 117.62L941.936 117.942L955.92 54.3486L954.455 54.0264ZM941.203 117.031H940.734V118.531H941.203V117.031ZM941.461 117.596L925.289 54.0027L923.836 54.3723L940.008 117.966L941.461 117.596ZM924.562 53.4375H905.891V54.9375H924.562V53.4375ZM905.164 54.0027L888.992 117.596L890.446 117.966L906.617 54.3723L905.164 54.0027ZM889.719 117.031H889.328V118.531H889.719V117.031ZM890.061 117.62L876.076 54.0264L874.611 54.3486L888.596 117.942L890.061 117.62ZM875.344 53.4375H855.812V54.9375H875.344V53.4375ZM855.089 54.3835L877.51 137.196L878.958 136.804L856.536 53.9915L855.089 54.3835ZM878.234 137.75H898.547V136.25H878.234V137.75ZM899.271 137.194L915.521 76.6475L914.073 76.2587L897.823 136.806L899.271 137.194ZM914.797 77.2031H915.188V75.7031H914.797V77.2031ZM914.463 76.6484L930.792 137.195L932.24 136.805L915.912 76.2578L914.463 76.6484ZM931.516 137.75H951.984V136.25H931.516V137.75ZM952.708 137.196L975.13 54.3835L973.682 53.9915L951.26 136.804L952.708 137.196ZM1013.62 101.141L1013.58 100.392L1013.58 100.392L1013.62 101.141ZM1032.77 99.9688H1033.52V99.1714L1032.72 99.2202L1032.77 99.9688ZM1032.84 123.797V123.047H1032.39L1032.18 123.445L1032.84 123.797ZM1033.23 123.797H1033.98V123.047H1033.23V123.797ZM1033.23 137H1032.48V137.75H1033.23V137ZM1051.98 137V137.75H1052.73V137H1051.98ZM982.922 79.0312L982.173 78.9896L982.129 79.7812H982.922V79.0312ZM1000.97 79.0312V79.7812H1001.59L1001.71 79.1654L1000.97 79.0312ZM1032.77 87.3125L1032.81 88.0613L1033.52 88.0209V87.3125H1032.77ZM1010.89 88.5625L1010.85 87.8137L1010.84 87.8139L1010.89 88.5625ZM1012.92 122.891C1008.82 122.891 1005.48 121.846 1003.19 120.052C1000.91 118.271 999.609 115.717 999.609 112.547H998.109C998.109 116.174 999.62 119.166 1002.26 121.233C1004.89 123.287 1008.58 124.391 1012.92 124.391V122.891ZM999.609 112.547C999.609 109.498 1000.85 107.021 1003.19 105.21C1005.55 103.379 1009.08 102.195 1013.67 101.889L1013.58 100.392C1008.8 100.711 1004.94 101.949 1002.27 104.024C999.565 106.119 998.109 109.033 998.109 112.547H999.609ZM1013.67 101.889L1032.81 100.717L1032.72 99.2202L1013.58 100.392L1013.67 101.889ZM1032.02 99.9688V106.297H1033.52V99.9688H1032.02ZM1032.02 106.297C1032.02 115.781 1023.63 122.891 1012.92 122.891V124.391C1024.24 124.391 1033.52 116.812 1033.52 106.297H1032.02ZM1007.06 139.078C1017.92 139.078 1028.59 133.413 1033.51 124.148L1032.18 123.445C1027.56 132.15 1017.45 137.578 1007.06 137.578V139.078ZM1032.84 124.547H1033.23V123.047H1032.84V124.547ZM1032.48 123.797V137H1033.98V123.797H1032.48ZM1033.23 137.75H1051.98V136.25H1033.23V137.75ZM1052.73 137V79.9688H1051.23V137H1052.73ZM1052.73 79.9688C1052.73 71.4295 1049.3 64.3379 1043.21 59.3962C1037.13 54.4666 1028.48 51.7188 1018.08 51.7188V53.2188C1028.23 53.2188 1036.52 55.9006 1042.26 60.5609C1047.99 65.209 1051.23 71.8674 1051.23 79.9688H1052.73ZM1018.08 51.7188C1007.4 51.7188 998.656 54.5259 992.451 59.3575C986.236 64.1969 982.615 71.0376 982.173 78.9896L983.671 79.0729C984.088 71.5561 987.498 65.1156 993.373 60.541C999.258 55.9585 1007.66 53.2188 1018.08 53.2188V51.7188ZM982.922 79.7812H1000.97V78.2812H982.922V79.7812ZM1001.71 79.1654C1002.3 75.9144 1003.97 73.2561 1006.58 71.4002C1009.2 69.5379 1012.8 68.4531 1017.3 68.4531V66.9531C1012.57 66.9531 1008.64 68.0949 1005.71 70.1779C1002.77 72.2674 1000.89 75.2731 1000.23 78.8971L1001.71 79.1654ZM1017.3 68.4531C1021.98 68.4531 1025.65 69.671 1028.14 71.8514C1030.62 74.0199 1032.02 77.2176 1032.02 81.375H1033.52C1033.52 76.8605 1031.98 73.2222 1029.13 70.7228C1026.29 68.2352 1022.22 66.9531 1017.3 66.9531V68.4531ZM1032.02 81.375V87.3125H1033.52V81.375H1032.02ZM1032.72 86.5637L1010.85 87.8137L1010.93 89.3113L1032.81 88.0613L1032.72 86.5637ZM1010.84 87.8139C1000.68 88.4443 992.641 90.9896 987.127 95.3162C981.584 99.6652 978.656 105.767 978.656 113.328H980.156C980.156 106.202 982.892 100.546 988.053 96.4963C993.242 92.4245 1000.95 89.9307 1010.94 89.3111L1010.84 87.8139ZM978.656 113.328C978.656 120.996 981.653 127.452 986.729 131.983C991.798 136.508 998.899 139.078 1007.06 139.078V137.578C999.211 137.578 992.483 135.109 987.728 130.864C982.98 126.626 980.156 120.582 980.156 113.328H978.656ZM1111.75 140.281L1111.04 140.035L1111.04 140.036L1111.75 140.281ZM1141.67 54.1875L1142.38 54.4337L1142.73 53.4375H1141.67V54.1875ZM1121.2 54.1875V53.4375H1120.64L1120.48 53.9754L1121.2 54.1875ZM1101.67 120.438V121.188H1102.23L1102.39 120.65L1101.67 120.438ZM1101.36 120.438L1100.64 120.65L1100.8 121.188H1101.36V120.438ZM1081.83 54.1875L1082.55 53.9754L1082.39 53.4375H1081.83V54.1875ZM1060.58 54.1875V53.4375H1059.52L1059.87 54.4386L1060.58 54.1875ZM1090.03 137.078L1090.74 136.841L1090.74 136.834L1090.74 136.827L1090.03 137.078ZM1088.94 141.688L1089.66 141.894L1089.69 141.793V141.688H1088.94ZM1068.94 152.078L1069.11 151.347L1068.19 151.135V152.078H1068.94ZM1068.94 167.469H1068.19V168.065L1068.77 168.2L1068.94 167.469ZM1076.59 168.531C1086.13 168.531 1093.34 166.777 1099.06 162.328C1104.76 157.89 1108.89 150.853 1112.46 140.526L1111.04 140.036C1107.51 150.256 1103.5 156.969 1098.14 161.144C1092.78 165.309 1085.96 167.031 1076.59 167.031V168.531ZM1112.46 140.527L1142.38 54.4337L1140.96 53.9413L1111.04 140.035L1112.46 140.527ZM1141.67 53.4375H1121.2V54.9375H1141.67V53.4375ZM1120.48 53.9754L1100.95 120.225L1102.39 120.65L1121.92 54.3996L1120.48 53.9754ZM1101.67 119.688H1101.36V121.188H1101.67V119.688ZM1102.08 120.225L1082.55 53.9754L1081.11 54.3996L1100.64 120.65L1102.08 120.225ZM1081.83 53.4375H1060.58V54.9375H1081.83V53.4375ZM1059.87 54.4386L1089.32 137.329L1090.74 136.827L1061.28 53.9364L1059.87 54.4386ZM1089.32 137.315C1089.28 137.206 1089.29 137.118 1089.29 137.115C1089.28 137.094 1089.29 137.084 1089.29 137.092C1089.28 137.106 1089.28 137.141 1089.27 137.201C1089.25 137.318 1089.21 137.485 1089.16 137.694C1089.07 138.109 1088.93 138.648 1088.79 139.195C1088.65 139.736 1088.5 140.29 1088.39 140.716C1088.34 140.929 1088.29 141.117 1088.26 141.261C1088.24 141.332 1088.23 141.398 1088.21 141.454C1088.21 141.481 1088.19 141.586 1088.19 141.688H1089.69C1089.69 141.76 1089.67 141.805 1089.69 141.745C1089.69 141.715 1089.7 141.668 1089.72 141.603C1089.75 141.474 1089.79 141.299 1089.85 141.087C1089.95 140.663 1090.1 140.123 1090.24 139.571C1090.38 139.024 1090.52 138.469 1090.62 138.034C1090.67 137.818 1090.72 137.622 1090.74 137.467C1090.76 137.391 1090.77 137.312 1090.78 137.24C1090.78 137.204 1090.79 137.158 1090.79 137.108C1090.78 137.075 1090.78 136.965 1090.74 136.841L1089.32 137.315ZM1088.22 141.481C1087.15 145.22 1085.63 147.723 1083.5 149.308C1081.36 150.894 1078.5 151.641 1074.56 151.641V153.141C1078.67 153.141 1081.9 152.363 1084.39 150.512C1086.89 148.66 1088.54 145.811 1089.66 141.894L1088.22 141.481ZM1074.56 151.641C1073.99 151.641 1072.85 151.621 1071.72 151.573C1070.57 151.523 1069.53 151.446 1069.11 151.347L1068.77 152.809C1069.36 152.945 1070.55 153.024 1071.66 153.072C1072.8 153.121 1073.97 153.141 1074.56 153.141V151.641ZM1068.19 152.078V167.469H1069.69V152.078H1068.19ZM1068.77 168.2C1069.1 168.275 1069.7 168.326 1070.36 168.365C1071.05 168.406 1071.89 168.438 1072.71 168.463C1074.37 168.512 1076.04 168.531 1076.59 168.531V167.031C1076.06 167.031 1074.4 167.012 1072.76 166.963C1071.94 166.939 1071.12 166.907 1070.45 166.868C1069.76 166.827 1069.29 166.78 1069.11 166.738L1068.77 168.2Z" fill="#2E2BB8"/>
<path fill-rule="evenodd" clip-rule="evenodd" d="M150.679 96.9278C121.971 146.689 52.7309 150.001 52.7309 150.001C52.7309 150.001 49.1289 141.577 45.9324 128.454H33.543C30.2981 128.454 27.6676 125.823 27.6676 122.578C27.6676 119.333 30.2981 116.703 33.543 116.703H43.4817C43.4817 116.703 43.4817 116.703 43.4817 116.703H55.7198C58.9647 116.703 61.5952 114.072 61.5952 110.828C61.5952 107.583 58.9647 104.952 55.7198 104.952H41.8641L5.87538 104.952C2.6305 104.952 0 102.322 0 99.0767C0 95.8318 2.6305 93.2013 5.87538 93.2013H45.2107C45.2264 93.2013 45.242 93.2014 45.2576 93.2015H45.9275C49.1724 93.2015 51.8029 90.571 51.8029 87.3262C51.8029 84.0813 49.1724 81.4508 45.9275 81.4508H41.3609C42.0234 71.1483 43.9674 60.4951 47.8641 50.1152H24.509C21.2641 50.1152 18.6337 47.4847 18.6337 44.2398C18.6337 40.995 21.2641 38.3645 24.509 38.3645H55.8443C55.8601 38.3645 55.8759 38.3645 55.8917 38.3647H66.8368C70.0817 38.3647 72.7122 35.7342 72.7122 32.4893C72.7122 29.2538 70.097 26.6292 66.8651 26.614H61.969C61.9595 26.614 61.9501 26.614 61.9407 26.6139H61.1973C61.2101 26.5988 61.2229 26.5837 61.2357 26.5687C58.3369 26.2078 56.0936 23.7352 56.0936 20.7386C56.0936 17.4937 58.7241 14.8632 61.969 14.8632H74.4506C90.9399 4.12802 111.908 2.46246 131.395 13.6482C160.322 30.2529 166.639 69.2644 150.679 96.9278ZM116.109 85.3676C113.355 87.9929 109.922 89.9852 105.988 91.0394C93.451 94.3987 80.5642 86.9586 77.2049 74.4213C73.8455 61.8841 81.2857 48.9973 93.823 45.638C101.396 43.6087 109.097 45.5202 114.748 50.1154H109.84C106.595 50.1154 103.964 52.7459 103.964 55.9908C103.964 59.2356 106.595 61.8661 109.84 61.8661H123.549C123.565 61.8661 123.58 61.8661 123.596 61.866H133.424C136.669 61.866 139.3 64.4964 139.3 67.7413C139.3 70.9862 136.669 73.6167 133.424 73.6167H122.812C122.811 73.6168 122.811 73.6168 122.811 73.6169H104.048C100.803 73.6169 98.1724 76.2474 98.1724 79.4922C98.1724 82.7371 100.803 85.3676 104.048 85.3676H116.109Z" fill="url(#paint0_linear)"/>
<defs>
<linearGradient id="paint0_linear" x1="85.6199" y1="6" x2="85.6199" y2="150.001" gradientUnits="userSpaceOnUse">
<stop stop-color="#2E2BB8"/>
<stop offset="1" stop-color="#2E2BB8"/>
</linearGradient>
</defs>
</svg>
